<?xml version="1.0" standalone="no"?>
<!DOCTYPE svg PUBLIC "-//W3C//DTD SVG 20010904//EN"
 "http://www.w3.org/TR/2001/REC-SVG-20010904/DTD/svg10.dtd">
<svg version="1.0" xmlns="http://www.w3.org/2000/svg"
 width="512.000000pt" height="512.000000pt" viewBox="0 0 512.000000 512.000000"
 preserveAspectRatio="xMidYMid meet">

<g transform="translate(0.000000,512.000000) scale(0.100000,-0.100000)"
fill="#000000" stroke="none">
<path d="M3075 3473 c-58 -14 -78 -66 -90 -233 -7 -100 -44 -368 -79 -577 -53
-318 -78 -618 -96 -1163 -6 -168 -13 -316 -16 -330 l-5 -25 -192 12 c-105 7
-210 15 -232 18 l-40 6 3 77 c6 141 52 534 83 707 17 94 33 208 36 255 7 110
1 116 -125 128 -51 5 -95 12 -98 14 -2 3 2 21 10 40 23 54 56 229 56 295 0
131 -36 256 -88 306 -40 38 -86 54 -199 68 -90 11 -116 11 -225 -5 -68 -10
-170 -29 -227 -42 -58 -13 -106 -23 -107 -21 -2 1 6 22 17 47 26 57 38 115 29
130 -13 22 -37 3 -43 -32 -3 -19 -19 -64 -35 -100 l-30 -66 -126 -42 c-265
-88 -485 -221 -750 -454 -97 -86 -211 -218 -262 -306 -24 -41 -44 -80 -44 -88
0 -24 29 -24 62 1 18 13 60 39 93 57 l60 34 -43 -47 c-64 -71 -115 -156 -166
-277 -51 -119 -69 -195 -64 -268 4 -68 24 -61 88 35 30 45 55 81 57 80 1 -2
-9 -38 -22 -81 -39 -126 -59 -267 -51 -363 l6 -85 -35 -41 c-46 -53 -72 -110
-86 -183 -32 -172 54 -315 231 -383 179 -69 301 -89 450 -72 205 23 209 47 22
113 -174 61 -245 106 -283 180 -22 42 -24 79 -8 95 9 9 22 7 52 -9 184 -94
543 -149 992 -152 172 -1 209 2 264 18 l63 20 167 -33 c91 -18 209 -36 261
-41 52 -5 129 -14 170 -20 41 -5 179 -13 305 -16 410 -12 695 31 1090 164
l170 57 6 105 c4 58 7 111 8 118 1 8 19 12 56 12 l56 0 -6 -77 c-4 -43 -8 -84
-10 -90 -7 -21 10 -16 98 28 86 44 237 144 299 200 l37 34 16 170 c9 94 25
242 37 330 34 264 34 271 7 288 -13 8 -51 21 -84 28 -83 17 -92 23 -116 78
-14 34 -31 54 -55 67 l-34 19 0 180 c0 99 -4 218 -10 264 -16 141 -24 130 -61
-86 -15 -92 -35 -209 -44 -260 l-16 -91 -35 -6 c-22 -5 -43 -19 -61 -41 l-28
-35 -87 0 c-82 0 -88 1 -88 20 0 28 64 607 95 860 28 224 30 286 15 342 -23
80 -49 87 -360 98 -176 6 -275 15 -350 29 -98 19 -208 25 -255 14z m482 -360
c-4 -38 -7 -87 -7 -110 l0 -43 -95 0 -95 0 0 49 c0 26 3 76 6 110 l7 61 95 0
95 0 -6 -67z m181 50 c67 -8 75 -25 66 -129 l-7 -74 -98 0 -99 0 0 105 0 105
43 0 c23 0 66 -3 95 -7z m-1727 -134 c56 -5 106 -12 111 -15 4 -3 -17 -26 -46
-52 -65 -57 -79 -78 -71 -102 10 -30 68 -43 157 -36 l78 6 0 -118 c0 -138 -24
-251 -84 -391 -61 -145 -123 -240 -239 -371 -32 -36 -65 -77 -72 -91 -22 -42
-36 -227 -25 -332 11 -105 40 -218 75 -291 19 -39 21 -52 12 -67 -13 -20 -27
-25 -27 -10 0 14 -107 94 -165 124 -56 28 -98 70 -141 139 -16 27 -32 48 -36
48 -12 0 -10 -5 22 -77 17 -36 30 -66 30 -67 0 -1 -32 -2 -71 -3 -53 -1 -82
-7 -122 -27 -53 -26 -166 -130 -154 -142 3 -4 30 11 60 33 82 63 134 85 208
91 85 6 164 -17 247 -70 75 -49 106 -84 144 -163 52 -111 31 -199 -58 -245
-49 -25 -50 -25 -314 -24 -175 0 -316 6 -415 17 -215 24 -458 82 -531 126 -25
15 -28 22 -25 63 3 58 -15 94 -73 145 -47 41 -125 73 -181 73 -42 0 -45 9 -45
125 0 136 57 402 106 498 8 15 11 27 6 27 -11 0 -126 -131 -160 -182 -14 -21
-26 -37 -28 -35 -2 1 3 30 11 62 24 101 96 264 158 355 42 62 152 176 206 213
25 17 40 32 34 34 -16 6 -160 -54 -237 -98 -38 -22 -70 -38 -72 -36 -8 8 110
152 192 233 155 154 405 336 568 414 93 44 286 113 286 102 0 -4 -27 -34 -60
-67 -33 -33 -60 -63 -60 -68 0 -17 48 19 122 90 75 74 77 75 170 98 96 25 286
62 348 68 19 2 40 5 46 5 7 1 58 -3 115 -9z m189 -89 c28 -56 26 -68 -16 -76
-38 -7 -121 -1 -132 11 -10 9 106 118 118 110 6 -3 19 -24 30 -45z m1335 -192
c-4 -57 -8 -105 -10 -107 -2 -2 -47 0 -100 4 -92 7 -96 8 -92 28 3 12 9 57 12
100 l7 77 95 0 96 0 -8 -102z m-344 -203 l46 -6 -14 -87 c-8 -48 -16 -102 -19
-119 l-5 -33 -71 0 -70 0 6 98 c11 158 12 161 49 157 18 -3 53 -7 78 -10z
m578 -51 c6 -6 -19 -208 -27 -215 -4 -4 -44 -4 -89 -2 l-83 6 0 37 c0 20 3 72
7 114 l6 78 91 -7 c50 -4 93 -9 95 -11z m-364 -341 l77 -6 -6 -101 c-10 -147
-1 -136 -112 -136 l-94 0 0 125 0 125 28 0 c16 0 64 -3 107 -7z m-1233 -238
c83 -10 82 -8 67 -119 l-12 -96 -71 6 c-39 4 -73 8 -75 10 -2 2 0 51 4 109 5
78 10 105 19 102 7 -3 38 -8 68 -12z m2052 -97 c1 -2 -2 -49 -8 -105 -11 -116
-5 -110 -100 -97 l-46 7 0 105 0 105 76 -6 c42 -3 77 -7 78 -9z m-1091 -23
l57 -6 0 -48 c0 -26 3 -90 7 -141 l6 -93 -79 6 c-45 4 -84 13 -92 21 -12 12
-12 33 -3 128 6 63 11 122 11 132 0 12 6 16 18 12 9 -2 43 -7 75 -11z m1065
-290 c2 -2 1 -62 -4 -132 l-9 -128 -62 -3 -63 -3 0 88 c0 48 3 112 7 142 l6
54 60 -7 c33 -3 62 -8 65 -11z m260 -20 c2 -2 0 -55 -4 -119 l-7 -116 -83 0
-84 0 0 124 0 125 87 -5 c48 -3 89 -7 91 -9z m-2276 -111 c4 -3 8 -39 8 -80 0
-70 -1 -75 -19 -69 -11 3 -36 -1 -55 -9 l-36 -15 0 47 c0 26 -7 60 -15 76 -8
15 -15 37 -15 48 0 19 4 20 62 14 34 -4 66 -10 70 -12z m-133 -217 c5 -5 28 1
51 13 50 26 61 19 37 -21 -9 -17 -17 -40 -17 -51 0 -18 5 -19 48 -14 26 4 53
2 61 -3 39 -25 -156 -205 -255 -235 -22 -7 -22 -6 -7 36 18 54 11 106 -26 185
l-29 60 26 34 c14 19 42 54 61 79 l36 45 3 -60 c2 -33 7 -64 11 -68z m-1680
-13 c36 -10 67 -30 102 -63 61 -59 66 -97 19 -156 l-30 -38 -83 -1 c-71 -1
-89 -5 -129 -29 -26 -15 -58 -41 -71 -59 l-25 -31 -11 54 c-25 124 25 267 113
320 38 23 48 23 115 3z m2049 -179 c4 -3 -28 -218 -32 -223 -4 -4 -127 16
-133 21 -9 9 22 191 35 203 10 10 28 12 70 8 31 -4 58 -8 60 -9z m-1991 -111
c24 -5 31 -13 41 -48 6 -23 29 -63 52 -88 37 -43 39 -47 20 -53 -11 -4 -36
-26 -56 -50 l-37 -43 -51 18 c-127 43 -225 117 -211 159 10 32 84 89 129 100
52 11 76 12 113 5z m216 -226 c23 -11 78 -33 122 -48 72 -25 77 -28 52 -35
-40 -10 -288 -1 -311 12 -17 10 -16 13 23 52 22 22 48 41 56 41 9 0 35 -10 58
-22z"/>
<path d="M1553 2821 c-147 -51 -309 -177 -354 -274 -27 -62 -25 -103 9 -137
38 -37 88 -46 175 -30 228 41 517 300 456 409 -37 67 -150 80 -286 32z m-122
-119 c-35 -66 11 -158 99 -195 l35 -15 -65 -30 c-153 -70 -280 -64 -280 14 0
55 50 123 148 201 68 54 81 59 63 25z"/>
<path d="M1703 2411 c-65 -52 -229 -222 -285 -296 -45 -60 -93 -144 -86 -151
2 -2 42 44 88 102 46 59 146 166 222 238 122 117 145 146 117 146 -4 0 -29
-17 -56 -39z"/>
<path d="M927 2376 c-117 -48 -217 -150 -238 -244 -26 -115 71 -222 202 -222
89 0 227 78 264 149 25 49 -1 47 -57 -4 -70 -63 -121 -87 -193 -92 -104 -7
-171 46 -169 137 1 89 86 186 222 254 49 25 68 46 40 46 -7 0 -39 -11 -71 -24z"/>
<path d="M1750 2264 c-35 -53 -89 -148 -121 -211 -60 -117 -123 -293 -116
-322 3 -13 5 -12 12 4 84 211 151 343 265 520 32 49 56 93 54 97 -13 21 -35 0
-94 -88z"/>
<path d="M1898 2287 c-38 -56 -78 -151 -97 -223 -11 -43 -18 -80 -16 -83 3 -2
7 5 11 15 28 79 61 154 95 212 38 64 49 102 30 102 -5 0 -15 -10 -23 -23z"/>
<path d="M698 1633 c-37 -82 -68 -157 -69 -168 -6 -30 24 -29 61 2 l34 28 -8
-25 c-18 -58 -19 -177 -2 -228 32 -94 63 -94 73 1 6 60 17 67 26 18 12 -56 82
-119 152 -135 l30 -7 -25 17 c-87 59 -135 130 -148 216 l-7 53 -24 -65 c-13
-36 -28 -69 -32 -74 -10 -11 -23 56 -23 114 0 55 23 168 35 176 5 3 9 10 9 15
0 6 -23 -10 -52 -35 -29 -25 -54 -44 -56 -42 -2 2 8 26 21 53 28 54 82 221 75
229 -3 2 -34 -62 -70 -143z"/>
<path d="M537 1698 c-37 -48 -47 -81 -46 -151 1 -79 16 -135 18 -67 1 25 14
90 30 145 16 55 28 101 26 103 -2 2 -14 -12 -28 -30z"/>
</g>
</svg>
